<svg width="587" height="375" viewBox="0 0 587 375" fill="none" xmlns="http://www.w3.org/2000/svg">
<g clip-path="url(#clip0_1411_363)">
<rect width="587" height="375" rx="10" fill="white" fill-opacity="0.8"/>
<rect width="673" height="44" fill="#5E5E5E"/>
<circle cx="147.5" cy="210.5" r="96.5" fill="#EADDE8"/>
<path d="M105.938 268.688H189.062V247.906C189.054 240.193 185.986 232.798 180.531 227.344C175.077 221.889 167.682 218.821 159.969 218.812H135.031C127.318 218.821 119.923 221.889 114.469 227.344C109.014 232.798 105.946 240.193 105.938 247.906V268.688ZM118.406 181.406C118.406 187.16 120.113 192.785 123.309 197.57C126.506 202.354 131.05 206.083 136.366 208.285C141.682 210.487 147.532 211.064 153.176 209.941C158.82 208.818 164.004 206.047 168.072 201.979C172.141 197.91 174.912 192.726 176.035 187.082C177.157 181.439 176.581 175.589 174.379 170.273C172.177 164.956 168.448 160.413 163.664 157.216C158.879 154.019 153.254 152.312 147.5 152.312C139.784 152.312 132.384 155.378 126.928 160.834C121.471 166.29 118.406 173.69 118.406 181.406Z" fill="#A5A5A5"/>
<path d="M293 144H416" stroke="black" stroke-width="10" stroke-linecap="round"/>
<path d="M293 175H416" stroke="#B7B7B7" stroke-width="10" stroke-linecap="round"/>
<path d="M293 175H416" stroke="#B7B7B7" stroke-width="10" stroke-linecap="round"/>
<path d="M293 206H416" stroke="#B7B7B7" stroke-width="10" stroke-linecap="round"/>
<path d="M293 206H416" stroke="#B7B7B7" stroke-width="10" stroke-linecap="round"/>
<rect x="287" y="246" width="95" height="18" rx="9" fill="#D9D9D9"/>
<rect x="393" y="246" width="67" height="18" rx="9" fill="#D9D9D9"/>
<rect x="287" y="277" width="67" height="18" rx="9" fill="#D9D9D9"/>
<rect x="365" y="277" width="67" height="18" rx="9" fill="#D9D9D9"/>
<rect x="443" y="277" width="67" height="18" rx="9" fill="#D9D9D9"/>
</g>
<defs>
<clipPath id="clip0_1411_363">
<rect width="587" height="375" rx="10" fill="white"/>
</clipPath>
</defs>
</svg>
