<svg width="418" height="432" viewBox="0 0 418 432" fill="none" xmlns="http://www.w3.org/2000/svg">
<g clip-path="url(#clip0_1403_264)">
<rect width="418" height="432" rx="10" fill="white" fill-opacity="0.8"/>
<path d="M56 61H267" stroke="#A5A5A5" stroke-width="11" stroke-linecap="round"/>
<path d="M56 133H400" stroke="#DEDEDE" stroke-width="5" stroke-linecap="round"/>
<path d="M56 133H400" stroke="#DEDEDE" stroke-width="5" stroke-linecap="round"/>
<path d="M56 133H400" stroke="#DEDEDE" stroke-width="5" stroke-linecap="round"/>
<path d="M56 162H400" stroke="#DEDEDE" stroke-width="5" stroke-linecap="round"/>
<path d="M56 162H400" stroke="#DEDEDE" stroke-width="5" stroke-linecap="round"/>
<path d="M56 162H400" stroke="#DEDEDE" stroke-width="5" stroke-linecap="round"/>
<path d="M56 191H400" stroke="#DEDEDE" stroke-width="5" stroke-linecap="round"/>
<path d="M56 191H400" stroke="#DEDEDE" stroke-width="5" stroke-linecap="round"/>
<path d="M56 191H400" stroke="#DEDEDE" stroke-width="5" stroke-linecap="round"/>
<path d="M56 220H400" stroke="#DEDEDE" stroke-width="5" stroke-linecap="round"/>
<path d="M56 220H400" stroke="#DEDEDE" stroke-width="5" stroke-linecap="round"/>
<path d="M56 220H400" stroke="#DEDEDE" stroke-width="5" stroke-linecap="round"/>
<path d="M56 249H400" stroke="#DEDEDE" stroke-width="5" stroke-linecap="round"/>
<path d="M56 249H400" stroke="#DEDEDE" stroke-width="5" stroke-linecap="round"/>
<path d="M56 249H400" stroke="#DEDEDE" stroke-width="5" stroke-linecap="round"/>
<path d="M56 278H400" stroke="#DEDEDE" stroke-width="5" stroke-linecap="round"/>
<path d="M56 278H400" stroke="#DEDEDE" stroke-width="5" stroke-linecap="round"/>
<path d="M56 278H400" stroke="#DEDEDE" stroke-width="5" stroke-linecap="round"/>
<path d="M56 307H400" stroke="#DEDEDE" stroke-width="5" stroke-linecap="round"/>
<path d="M56 307H400" stroke="#DEDEDE" stroke-width="5" stroke-linecap="round"/>
<path d="M56 307H400" stroke="#DEDEDE" stroke-width="5" stroke-linecap="round"/>
<path d="M56 336H400" stroke="#DEDEDE" stroke-width="5" stroke-linecap="round"/>
<path d="M56 336H400" stroke="#DEDEDE" stroke-width="5" stroke-linecap="round"/>
<path d="M56 336H400" stroke="#DEDEDE" stroke-width="5" stroke-linecap="round"/>
<path d="M56 365H400" stroke="#DEDEDE" stroke-width="5" stroke-linecap="round"/>
<path d="M56 365H400" stroke="#DEDEDE" stroke-width="5" stroke-linecap="round"/>
<path d="M56 365H400" stroke="#DEDEDE" stroke-width="5" stroke-linecap="round"/>
<path d="M56 394H400" stroke="#DEDEDE" stroke-width="5" stroke-linecap="round"/>
<path d="M56 394H400" stroke="#DEDEDE" stroke-width="5" stroke-linecap="round"/>
<path d="M56 394H400" stroke="#DEDEDE" stroke-width="5" stroke-linecap="round"/>
</g>
<defs>
<clipPath id="clip0_1403_264">
<rect width="418" height="432" rx="10" fill="white"/>
</clipPath>
</defs>
</svg>
