<svg width="666" height="403" viewBox="0 0 666 403" fill="none" xmlns="http://www.w3.org/2000/svg">
<g clip-path="url(#clip0_1403_341)">
<rect width="666" height="403" rx="10" fill="white" fill-opacity="0.8"/>
<rect x="-8" width="691" height="51" fill="#575757"/>
<rect x="46" y="340" width="574" height="32" rx="10" fill="white"/>
<path d="M46 103C46 97.4772 50.4772 93 56 93H142C147.523 93 152 97.4772 152 103V111C152 116.523 147.523 121 142 121H46V103Z" fill="#D9D9D9"/>
<path d="M46 138C46 132.477 50.4772 128 56 128H211C216.523 128 221 132.477 221 138V146C221 151.523 216.523 156 211 156H46V138Z" fill="#D9D9D9"/>
<path d="M46 255C46 249.477 50.4772 245 56 245H211C216.523 245 221 249.477 221 255V263C221 268.523 216.523 273 211 273H46V255Z" fill="#D9D9D9"/>
<path d="M363 212C363 206.477 367.477 202 373 202H593C598.523 202 603 206.477 603 212V220C603 225.523 598.523 230 593 230H373C367.477 230 363 225.523 363 220V212Z" fill="#90B6B3"/>
<path d="M428 289C428 283.477 432.477 279 438 279H593C598.523 279 603 283.477 603 289V297C603 302.523 598.523 307 593 307H438C432.477 307 428 302.523 428 297V289Z" fill="#90B6B3"/>
<path d="M46 173C46 167.477 50.4772 163 56 163H142C147.523 163 152 167.477 152 173V181C152 186.523 147.523 191 142 191H46V173Z" fill="#D9D9D9"/>
</g>
<defs>
<clipPath id="clip0_1403_341">
<rect width="666" height="403" rx="10" fill="white"/>
</clipPath>
</defs>
</svg>
